<svg width="28" height="28" viewBox="0 0 28 28" fill="none" xmlns="http://www.w3.org/2000/svg">
<path fill-rule="evenodd" clip-rule="evenodd" d="M13.7398 27.3799C11.0271 27.3898 8.37262 26.5935 6.11324 25.0921C3.85386 23.5908 2.09146 21.452 1.0497 18.9473C0.00794578 16.4426 -0.266167 13.6848 0.262103 11.024C0.790373 8.36321 2.09721 5.91936 4.0168 4.00258C5.9364 2.0858 8.38222 0.782562 11.0438 0.258197C13.7053 -0.266167 16.4626 0.0120238 18.9658 1.05745C21.469 2.10288 23.6052 3.86838 25.1033 6.12996C26.6013 8.39154 27.3937 11.0472 27.3798 13.7599C27.323 17.3579 25.8671 20.7923 23.3208 23.3349C20.7744 25.8775 17.3379 27.3284 13.7398 27.3799ZM13.5998 25.8899C16.0169 25.9077 18.3849 25.2071 20.4032 23.877C22.4215 22.5469 23.9992 20.6472 24.9361 18.419C25.873 16.1908 26.1269 13.7345 25.6655 11.3618C25.2042 8.98903 24.0484 6.80682 22.3449 5.092C20.6413 3.37718 18.4668 2.20701 16.0971 1.73006C13.7275 1.25311 11.2695 1.49082 9.03517 2.41304C6.80084 3.33526 4.89081 4.90043 3.54744 6.90993C2.20407 8.91943 1.48791 11.2827 1.48983 13.6999C1.47661 15.2977 1.78022 16.8822 2.38314 18.3619C2.98605 19.8416 3.8763 21.1871 5.0024 22.3206C6.1285 23.4542 7.46811 24.3533 8.9438 24.9659C10.4195 25.5785 12.002 25.8926 13.5998 25.8899Z" fill="white"/>
<path fill-rule="evenodd" clip-rule="evenodd" d="M12.9297 9.30979C12.9297 7.88979 12.9297 6.45977 12.9297 5.03977C12.9053 4.8621 12.9364 4.68126 13.0187 4.52194C13.1011 4.36263 13.2307 4.23266 13.3897 4.14981C13.9097 3.88981 14.3897 4.26979 14.3897 4.93979C14.3897 7.07979 14.3897 9.20976 14.3897 11.3498C14.4147 11.8128 14.4147 12.2768 14.3897 12.7398C14.371 12.946 14.4167 13.1529 14.5206 13.3321C14.6245 13.5112 14.7814 13.6537 14.9697 13.7398C16.4497 14.6598 17.9097 15.6098 19.3797 16.5598C19.8597 16.8698 19.9797 17.2898 19.7197 17.6798C19.4597 18.0698 19.0297 18.1098 18.5497 17.7998C16.8097 16.6898 15.0597 15.5998 13.3397 14.4498C13.216 14.3496 13.114 14.2251 13.0401 14.0841C12.9662 13.9431 12.9218 13.7885 12.9097 13.6298C12.9097 12.1898 12.9097 10.7398 12.9097 9.29978L12.9297 9.30979Z" fill="white"/>
</svg>
